<?xml version="1.0" encoding="UTF-8" standalone="no"?>
<!DOCTYPE svg PUBLIC "-//W3C//DTD SVG 1.1//EN" "http://www.w3.org/Graphics/SVG/1.1/DTD/svg11.dtd">
<svg width="100%" height="100%" viewBox="0 0 50 50" version="1.1" xmlns="http://www.w3.org/2000/svg" xmlns:xlink="http://www.w3.org/1999/xlink" xml:space="preserve" xmlns:serif="http://www.serif.com/" style="fill-rule:evenodd;clip-rule:evenodd;stroke-linejoin:round;stroke-miterlimit:2;">
    <g id="Artboard1" transform="matrix(2,0,0,0.752617,0,0)">
        <rect x="0" y="0" width="25" height="66.435" style="fill:none;"/>
        <clipPath id="_clip1">
            <rect x="0" y="0" width="25" height="66.435"/>
        </clipPath>
        <g clip-path="url(#_clip1)">
            <g transform="matrix(0.5,0,0,1.3287,-0.855032,-1.96556)">
                <circle cx="26.527" cy="26.296" r="25.183"/>
            </g>
            <g transform="matrix(0.818503,0,0,0.790966,2.17714,6.70021)">
                <g transform="matrix(0.423235,0,0,1.11282,1.38917,1.49773)">
                    <circle cx="26.516" cy="13.58" r="9.714" style="fill:white;"/>
                </g>
                <g transform="matrix(0.361428,0,0,1.11282,3.57618,0.364478)">
                    <path d="M0,50C0,50 1.962,40.097 7.893,34.328C12.301,30.04 18.227,26.779 25,27.124C30.524,27.405 36.072,28.675 42.359,34.752C45.92,38.193 49.322,45.256 50,50" style="fill:white;"/>
                </g>
            </g>
        </g>
    </g>
</svg>
